<svg width="60" height="60" viewBox="0 0 60 60" fill="none" xmlns="http://www.w3.org/2000/svg">
<path d="M24.1044 14.052C25.6048 13.4228 26.2341 11.6319 25.5564 10.1798L23.1847 5.1944C22.5071 3.79122 20.8614 3.16151 19.4093 3.79122C15.2951 5.5337 11.7618 7.80861 8.95443 10.5675C5.51786 13.81 3.19455 17.537 1.93609 21.6512C0.677633 25.8143 0 31.4769 0 38.6888V53.5483C0 55.1456 1.30686 56.4525 2.90414 56.4525H21.9263C23.5235 56.4525 24.8304 55.1456 24.8304 53.5483V34.5262C24.8304 32.9284 23.5235 31.6221 21.9263 31.6221H12.8266C12.9234 26.733 14.0851 22.8128 16.2148 19.8598C17.9573 17.4891 20.571 15.553 24.1044 14.052Z" fill="#FD9B28"/>
<path d="M58.2747 14.0522C59.7752 13.423 60.4039 11.6321 59.7268 10.1801L57.3551 5.2435C56.6774 3.83983 55.0317 3.2106 53.5797 3.83983C49.5139 5.58232 46.0284 7.85722 43.1732 10.5678C39.7361 13.8591 37.3649 17.5861 36.106 21.7003C34.8475 25.7656 34.2188 31.4292 34.2188 38.6895V53.549C34.2188 55.1463 35.5256 56.4532 37.1229 56.4532H56.145C57.7423 56.4532 59.0491 55.1463 59.0491 53.549V34.5269C59.0491 32.9291 57.7423 31.6228 56.145 31.6228H46.997C47.0938 26.7336 48.2559 22.8135 50.3851 19.8605C52.1276 17.4893 54.7413 15.5532 58.2747 14.0522Z" fill="#FD9B28"/>
</svg>
