<?xml version="1.0" encoding="UTF-8"?>
<!DOCTYPE svg PUBLIC "-//W3C//DTD SVG 1.1//EN" "http://www.w3.org/Graphics/SVG/1.1/DTD/svg11.dtd">
<svg xmlns="http://www.w3.org/2000/svg" version="1.1" width="1772px" height="356px" style="shape-rendering:geometricPrecision; text-rendering:geometricPrecision; image-rendering:optimizeQuality; fill-rule:evenodd; clip-rule:evenodd" xmlns:xlink="http://www.w3.org/1999/xlink">
<g><path style="opacity:0.939" fill="#8d2828" d="M 64.5,58.5 C 149.833,58.5 235.167,58.5 320.5,58.5C 320.5,65.1667 320.5,71.8333 320.5,78.5C 241.833,78.5 163.167,78.5 84.5,78.5C 84.5,89.8333 84.5,101.167 84.5,112.5C 122.833,112.5 161.167,112.5 199.5,112.5C 199.5,159.167 199.5,205.833 199.5,252.5C 192.833,252.5 186.167,252.5 179.5,252.5C 179.5,212.167 179.5,171.833 179.5,131.5C 141.167,131.5 102.833,131.5 64.5,131.5C 64.5,107.167 64.5,82.8333 64.5,58.5 Z"/></g>
<g><path style="opacity:0.957" fill="#8d2828" d="M 214.5,112.5 C 249.833,112.5 285.167,112.5 320.5,112.5C 320.5,136.167 320.5,159.833 320.5,183.5C 295.833,183.5 271.167,183.5 246.5,183.5C 246.5,221.167 246.5,258.833 246.5,296.5C 210.833,296.5 175.167,296.5 139.5,296.5C 139.5,252.5 139.5,208.5 139.5,164.5C 145.833,164.5 152.167,164.5 158.5,164.5C 158.5,201.833 158.5,239.167 158.5,276.5C 181.167,276.5 203.833,276.5 226.5,276.5C 226.5,239.167 226.5,201.833 226.5,164.5C 251.5,164.5 276.5,164.5 301.5,164.5C 301.5,153.5 301.5,142.5 301.5,131.5C 272.5,131.5 243.5,131.5 214.5,131.5C 214.5,125.167 214.5,118.833 214.5,112.5 Z"/></g>
<g><path style="opacity:1" fill="#8d2928" d="M 396.5,112.5 C 432.5,112.5 468.5,112.5 504.5,112.5C 504.5,118.833 504.5,125.167 504.5,131.5C 490.167,131.5 475.833,131.5 461.5,131.5C 461.5,161.167 461.5,190.833 461.5,220.5C 454.167,220.5 446.833,220.5 439.5,220.5C 439.5,190.833 439.5,161.167 439.5,131.5C 425.167,131.5 410.833,131.5 396.5,131.5C 396.5,125.167 396.5,118.833 396.5,112.5 Z"/></g>
<g><path style="opacity:1" fill="#8d2928" d="M 532.5,112.5 C 564.5,112.5 596.5,112.5 628.5,112.5C 628.5,118.833 628.5,125.167 628.5,131.5C 603.833,131.5 579.167,131.5 554.5,131.5C 554.5,139.167 554.5,146.833 554.5,154.5C 568.833,154.5 583.167,154.5 597.5,154.5C 597.5,160.833 597.5,167.167 597.5,173.5C 583.167,173.5 568.833,173.5 554.5,173.5C 554.5,182.5 554.5,191.5 554.5,200.5C 579.5,200.5 604.5,200.5 629.5,200.5C 629.5,207.167 629.5,213.833 629.5,220.5C 597.167,220.5 564.833,220.5 532.5,220.5C 532.5,184.5 532.5,148.5 532.5,112.5 Z"/></g>
<g><path style="opacity:0.991" fill="#8d2828" d="M 674.5,112.5 C 701.218,112.036 727.884,112.536 754.5,114C 759.099,115.598 761.932,118.765 763,123.5C 764.376,132.098 764.876,140.765 764.5,149.5C 757.169,150.499 749.836,151.499 742.5,152.5C 742.5,145.833 742.5,139.167 742.5,132.5C 722.5,132.5 702.5,132.5 682.5,132.5C 682.5,154.833 682.5,177.167 682.5,199.5C 702.5,199.5 722.5,199.5 742.5,199.5C 742.5,191.833 742.5,184.167 742.5,176.5C 749.604,177.693 756.604,179.359 763.5,181.5C 765.133,191.968 764.633,202.301 762,212.5C 759.245,216.577 755.412,219.077 750.5,220C 725.167,220.667 699.833,220.667 674.5,220C 666.255,218.688 661.755,213.855 661,205.5C 660.333,179.5 660.333,153.5 661,127.5C 661.903,119.103 666.403,114.103 674.5,112.5 Z"/></g>
<g><path style="opacity:1" fill="#8d2928" d="M 799.5,112.5 C 806.833,112.5 814.167,112.5 821.5,112.5C 821.5,126.167 821.5,139.833 821.5,153.5C 844.167,153.5 866.833,153.5 889.5,153.5C 889.5,139.833 889.5,126.167 889.5,112.5C 896.833,112.5 904.167,112.5 911.5,112.5C 911.5,148.5 911.5,184.5 911.5,220.5C 904.167,220.5 896.833,220.5 889.5,220.5C 889.5,205.5 889.5,190.5 889.5,175.5C 866.833,175.5 844.167,175.5 821.5,175.5C 821.5,190.5 821.5,205.5 821.5,220.5C 814.167,220.5 806.833,220.5 799.5,220.5C 799.5,184.5 799.5,148.5 799.5,112.5 Z"/></g>
<g><path style="opacity:0.996" fill="#8d2828" d="M 951.5,112.5 C 981.502,112.333 1011.5,112.5 1041.5,113C 1047.77,114.934 1051.6,119.1 1053,125.5C 1053.67,138.833 1053.67,152.167 1053,165.5C 1051.57,171.925 1047.74,176.092 1041.5,178C 1018.84,178.5 996.169,178.667 973.5,178.5C 973.5,192.5 973.5,206.5 973.5,220.5C 966.167,220.5 958.833,220.5 951.5,220.5C 951.5,184.5 951.5,148.5 951.5,112.5 Z M 973.5,131.5 C 991.17,131.333 1008.84,131.5 1026.5,132C 1028.68,132.163 1030.51,132.996 1032,134.5C 1034,141.833 1034,149.167 1032,156.5C 1030.51,158.004 1028.68,158.837 1026.5,159C 1008.84,159.5 991.17,159.667 973.5,159.5C 973.5,150.167 973.5,140.833 973.5,131.5 Z"/></g>
<g><path style="opacity:0.992" fill="#8d2828" d="M 1085.5,112.5 C 1115.5,112.333 1145.5,112.5 1175.5,113C 1181.74,114.908 1185.57,119.075 1187,125.5C 1187.67,139.167 1187.67,152.833 1187,166.5C 1185.61,172.891 1181.78,177.058 1175.5,179C 1168.83,179.333 1162.17,179.667 1155.5,180C 1169.47,192.971 1183.14,206.304 1196.5,220C 1185.83,220.667 1175.17,220.667 1164.5,220C 1152.68,206.684 1140.68,193.517 1128.5,180.5C 1121.53,179.503 1114.53,179.17 1107.5,179.5C 1107.5,193.167 1107.5,206.833 1107.5,220.5C 1100.17,220.5 1092.83,220.5 1085.5,220.5C 1085.5,184.5 1085.5,148.5 1085.5,112.5 Z M 1107.5,131.5 C 1125.17,131.333 1142.84,131.5 1160.5,132C 1162.68,132.163 1164.51,132.996 1166,134.5C 1168,142.167 1168,149.833 1166,157.5C 1164.51,159.004 1162.68,159.837 1160.5,160C 1142.84,160.5 1125.17,160.667 1107.5,160.5C 1107.5,150.833 1107.5,141.167 1107.5,131.5 Z"/></g>
<g><path style="opacity:0.994" fill="#8d2828" d="M 1235.5,112.5 C 1264.84,112.333 1294.17,112.5 1323.5,113C 1331.32,114.158 1335.82,118.658 1337,126.5C 1337.67,152.833 1337.67,179.167 1337,205.5C 1336.25,213.855 1331.75,218.688 1323.5,220C 1294.17,220.667 1264.83,220.667 1235.5,220C 1227.22,218.718 1222.72,213.884 1222,205.5C 1221.33,179.5 1221.33,153.5 1222,127.5C 1222.9,119.103 1227.4,114.103 1235.5,112.5 Z M 1243.5,132.5 C 1267.5,132.5 1291.5,132.5 1315.5,132.5C 1315.5,154.833 1315.5,177.167 1315.5,199.5C 1291.5,199.5 1267.5,199.5 1243.5,199.5C 1243.5,177.167 1243.5,154.833 1243.5,132.5 Z"/></g>
<g><path style="opacity:0.987" fill="#8d2828" d="M 1457.5,112.5 C 1481.84,112.333 1506.17,112.5 1530.5,113C 1559.03,119.025 1572.7,136.691 1571.5,166C 1572.23,197.241 1557.23,215.241 1526.5,220C 1503.5,220.5 1480.5,220.667 1457.5,220.5C 1457.5,184.5 1457.5,148.5 1457.5,112.5 Z M 1479.5,131.5 C 1493.5,131.333 1507.5,131.5 1521.5,132C 1541.07,134.067 1550.4,145.067 1549.5,165C 1549.4,174.254 1546.9,182.754 1542,190.5C 1536.42,195.372 1529.92,198.206 1522.5,199C 1508.2,200.323 1493.87,200.823 1479.5,200.5C 1479.5,177.5 1479.5,154.5 1479.5,131.5 Z"/></g>
<g><path style="opacity:0.991" fill="#8d2828" d="M 1616.5,112.5 C 1643.22,112.036 1669.88,112.536 1696.5,114C 1701.1,115.598 1703.93,118.765 1705,123.5C 1706.38,132.098 1706.88,140.765 1706.5,149.5C 1699.17,150.499 1691.84,151.499 1684.5,152.5C 1684.5,145.833 1684.5,139.167 1684.5,132.5C 1664.5,132.5 1644.5,132.5 1624.5,132.5C 1624.5,154.833 1624.5,177.167 1624.5,199.5C 1644.5,199.5 1664.5,199.5 1684.5,199.5C 1684.5,191.833 1684.5,184.167 1684.5,176.5C 1691.6,177.693 1698.6,179.359 1705.5,181.5C 1707.13,191.968 1706.63,202.301 1704,212.5C 1701.25,216.577 1697.41,219.077 1692.5,220C 1667.17,220.667 1641.83,220.667 1616.5,220C 1608.25,218.688 1603.75,213.855 1603,205.5C 1602.33,179.5 1602.33,153.5 1603,127.5C 1603.9,119.103 1608.4,114.103 1616.5,112.5 Z"/></g>
</svg>
