<svg  width="34" height="34" viewBox="0 0 24 24" fill="none" xmlns="http://www.w3.org/2000/svg">
<path d="M21 10C21 17 12 23 12 23C12 23 3 17 3 10C3 7.61305 3.94821 5.32387 5.63604 3.63604C7.32387 1.94821 9.61305 1 12 1C14.3869 1 16.6761 1.94821 18.364 3.63604C20.0518 5.32387 21 7.61305 21 10Z" fill="white" stroke="#8D2928" stroke-width="1.5" stroke-linecap="round" stroke-linejoin="round"/>
<path fill-rule="evenodd" clip-rule="evenodd" d="M7 7.375V10.1875C7.10998 10.1875 7.1964 10.1875 7.27496 10.1835C7.60688 10.1835 7.9388 10.1838 8.27073 10.184C9.26647 10.1848 10.2622 10.1855 11.258 10.1796C11.4426 10.1796 11.5015 10.2267 11.5015 10.4192C11.4956 11.4767 11.4963 12.532 11.4971 13.5884C11.4973 13.9407 11.4976 14.2931 11.4976 14.6457V14.905H12.236V9.46863H11.965C11.6323 9.46863 11.2993 9.46838 10.9662 9.46814C9.96601 9.4674 8.96419 9.46666 7.96236 9.47256C7.79739 9.47648 7.73061 9.43328 7.73847 9.25652C7.74946 9.05579 7.74699 8.85507 7.74451 8.65435C7.74345 8.56833 7.74239 8.48231 7.74239 8.39628C7.74239 8.11347 7.74239 8.11347 8.03307 8.11347H16.7297C16.7893 8.11347 16.8473 8.11004 16.9058 8.10658C16.9359 8.1048 16.9661 8.10302 16.9968 8.10168V7.375H7ZM17.0005 12.2223V9.48839C15.6179 9.48839 14.2588 9.48839 12.9036 9.48446V10.1836H13.1786C13.4233 10.1836 13.6677 10.1839 13.912 10.1841C14.6441 10.1849 15.3745 10.1856 16.1049 10.1797C16.2621 10.1758 16.3092 10.2269 16.3053 10.38C16.2935 10.6786 16.2935 10.981 16.3053 11.2796C16.3131 11.4485 16.2621 11.5035 16.0853 11.5035C15.4666 11.4976 14.848 11.4983 14.2293 11.499C14.0231 11.4993 13.8169 11.4995 13.6107 11.4995H13.3553V11.7548C13.3553 12.0809 13.3551 12.4069 13.3548 12.7329C13.3541 13.711 13.3534 14.6891 13.3593 15.6671C13.3593 15.84 13.3082 15.8871 13.1354 15.8871C12.389 15.8793 11.6427 15.8753 10.8964 15.8871C10.7079 15.891 10.6529 15.84 10.6529 15.6475C10.6588 14.6813 10.658 13.7128 10.6573 12.7439C10.657 12.4208 10.6568 12.0976 10.6568 11.7745V11.5152H9.95368V16.6217H14.1095V16.3506C14.1095 16.0246 14.1098 15.6986 14.11 15.3726C14.1107 14.3945 14.1115 13.4164 14.1056 12.4383C14.1056 12.2694 14.1527 12.2184 14.3256 12.2184C14.9353 12.2242 15.5428 12.2235 16.1514 12.2228C16.3544 12.2225 16.5575 12.2223 16.7609 12.2223H17.0005Z" fill="#8D2928"/>
</svg>
