<svg width="34" height="34" viewBox="0 0 24 24" fill="none" xmlns="http://www.w3.org/2000/svg">
<path d="M21 10C21 17 12 23 12 23C12 23 3 17 3 10C3 7.61305 3.94821 5.32387 5.63604 3.63604C7.32387 1.94821 9.61305 1 12 1C14.3869 1 16.6761 1.94821 18.364 3.63604C20.0518 5.32387 21 7.61305 21 10Z" fill="#8D2928"/>
<path fill-rule="evenodd" clip-rule="evenodd" d="M7 7V9.81245C7.10998 9.81245 7.1964 9.81245 7.27496 9.80853C7.60688 9.80853 7.9388 9.80877 8.27073 9.80902C9.26647 9.80975 10.2622 9.81049 11.258 9.8046C11.4426 9.8046 11.5015 9.85173 11.5015 10.0442C11.4956 11.1017 11.4963 12.157 11.4971 13.2134C11.4973 13.5657 11.4976 13.9181 11.4976 14.2707V14.53H12.236V9.09363H11.965C11.6323 9.09363 11.2993 9.09338 10.9662 9.09314C9.96601 9.0924 8.96419 9.09166 7.96236 9.09756C7.79739 9.10148 7.73061 9.05828 7.73847 8.88152C7.74946 8.68079 7.74699 8.48007 7.74451 8.27935C7.74345 8.19333 7.74239 8.10731 7.74239 8.02128C7.74239 7.73847 7.74239 7.73847 8.03307 7.73847H16.7297C16.7893 7.73847 16.8473 7.73504 16.9058 7.73158C16.9359 7.7298 16.9661 7.72802 16.9968 7.72668V7H7ZM17.0005 11.8473V9.11339C15.6179 9.11339 14.2588 9.11339 12.9036 9.10946V9.80865H13.1786C13.4233 9.80865 13.6677 9.80889 13.912 9.80914C14.6441 9.80987 15.3745 9.81061 16.1049 9.80472C16.2621 9.80079 16.3092 9.85185 16.3053 10.005C16.2935 10.3036 16.2935 10.606 16.3053 10.9046C16.3131 11.0735 16.2621 11.1285 16.0853 11.1285C15.4666 11.1226 14.848 11.1233 14.2293 11.124C14.0231 11.1243 13.8169 11.1245 13.6107 11.1245H13.3553V11.3798C13.3553 11.7059 13.3551 12.0319 13.3548 12.3579C13.3541 13.336 13.3534 14.3141 13.3593 15.2921C13.3593 15.465 13.3082 15.5121 13.1354 15.5121C12.389 15.5043 11.6427 15.5003 10.8964 15.5121C10.7079 15.516 10.6529 15.465 10.6529 15.2725C10.6588 14.3063 10.658 13.3378 10.6573 12.3689C10.657 12.0458 10.6568 11.7226 10.6568 11.3995V11.1402H9.95368V16.2467H14.1095V15.9756C14.1095 15.6496 14.1098 15.3236 14.11 14.9976C14.1107 14.0195 14.1115 13.0414 14.1056 12.0633C14.1056 11.8944 14.1527 11.8434 14.3256 11.8434C14.9353 11.8492 15.5428 11.8485 16.1514 11.8478C16.3544 11.8475 16.5575 11.8473 16.7609 11.8473H17.0005Z" fill="white"/>
</svg>
